<svg xmlns="http://www.w3.org/2000/svg" version="1.1" xmlns:xlink="http://www.w3.org/1999/xlink" width="400" height="376.66666666666663"><svg id="SvgjsSvg1033" version="1.1" xmlns="http://www.w3.org/2000/svg" xmlns:xlink="http://www.w3.org/1999/xlink" width="400" height="376.66666666666663" viewBox="0, 0, 400,376.66666666666663"><g id="SvgjsG1032"><path id="SvgjsPath1031" d="M186.999 49.613 C 185.438 50.449,184.891 50.518,179.860 50.518 C 174.767 50.518,174.355 50.572,173.530 51.348 C 172.742 52.088,172.203 52.184,168.499 52.242 C 165.101 52.295,164.216 52.429,163.604 52.982 C 163.099 53.440,161.976 53.731,160.128 53.883 C 158.462 54.021,157.036 54.364,156.467 54.764 C 155.954 55.124,155.099 55.419,154.567 55.419 C 154.035 55.419,152.937 55.757,152.127 56.170 C 151.317 56.583,150.052 57.028,149.314 57.160 C 148.577 57.292,147.295 57.702,146.466 58.072 C 145.636 58.442,144.327 58.862,143.557 59.006 C 142.787 59.150,141.960 59.505,141.720 59.794 C 141.480 60.084,141.061 60.320,140.788 60.320 C 140.345 60.320,127.322 66.623,125.919 67.517 C 125.608 67.715,124.752 68.170,124.018 68.528 C 123.283 68.887,122.011 69.708,121.190 70.354 C 120.370 70.999,119.105 71.830,118.379 72.200 C 117.653 72.570,116.381 73.421,115.551 74.091 C 114.722 74.761,113.659 75.427,113.188 75.571 C 112.718 75.715,111.324 76.824,110.090 78.035 C 108.856 79.246,107.363 80.343,106.771 80.473 C 105.373 80.780,86.242 99.899,85.429 101.800 C 85.121 102.521,83.842 104.171,82.585 105.467 C 81.329 106.763,80.302 108.157,80.302 108.565 C 80.302 108.972,79.538 110.165,78.605 111.216 C 77.672 112.266,76.909 113.450,76.909 113.845 C 76.909 114.241,76.725 114.678,76.500 114.817 C 76.276 114.955,75.784 115.789,75.407 116.668 C 75.029 117.548,74.225 118.844,73.619 119.549 C 72.182 121.217,65.726 134.334,65.380 136.287 C 65.233 137.116,64.798 138.199,64.413 138.694 C 64.028 139.188,63.712 139.867,63.711 140.202 C 63.710 140.537,63.371 141.320,62.959 141.942 C 62.548 142.564,62.209 143.686,62.208 144.435 C 62.206 145.246,61.885 146.206,61.414 146.805 C 60.978 147.358,60.529 148.526,60.415 149.400 C 60.301 150.274,59.916 151.366,59.560 151.826 C 59.117 152.397,58.826 153.759,58.640 156.131 C 58.491 158.039,58.133 159.960,57.845 160.400 C 57.557 160.840,57.210 162.720,57.074 164.577 C 56.907 166.861,56.630 168.181,56.218 168.654 C 55.278 169.732,55.288 217.090,56.228 218.151 C 56.657 218.636,56.929 219.947,57.116 222.432 C 57.264 224.402,57.599 226.268,57.861 226.579 C 58.306 227.107,58.468 227.966,59.028 232.799 C 59.149 233.836,59.494 234.958,59.795 235.292 C 60.097 235.627,60.449 236.787,60.577 237.871 C 60.705 238.954,61.029 239.925,61.296 240.027 C 61.563 240.130,61.899 241.153,62.043 242.302 C 62.208 243.625,62.562 244.610,63.009 244.993 C 63.396 245.325,63.713 245.960,63.713 246.404 C 63.713 246.849,64.047 247.636,64.455 248.155 C 64.863 248.673,65.304 249.841,65.435 250.750 C 65.566 251.660,65.996 252.863,66.390 253.425 C 66.784 253.987,67.107 254.685,67.107 254.976 C 67.107 255.268,67.446 255.938,67.861 256.465 C 68.275 256.992,68.615 257.651,68.616 257.929 C 68.617 258.208,68.930 258.948,69.313 259.575 C 69.695 260.203,70.212 261.334,70.461 262.090 C 70.711 262.846,71.150 263.660,71.437 263.898 C 71.724 264.136,72.070 264.836,72.206 265.454 C 72.341 266.072,72.776 266.779,73.172 267.027 C 73.581 267.282,73.893 267.900,73.893 268.455 C 73.893 269.141,74.394 269.876,75.567 270.909 C 76.864 272.052,77.196 272.573,77.037 273.220 C 76.879 273.867,77.225 274.413,78.567 275.635 C 79.739 276.701,80.302 277.517,80.302 278.149 C 80.302 278.792,81.038 279.831,82.647 281.459 C 83.938 282.764,85.168 284.347,85.381 284.975 C 85.880 286.447,105.301 306.037,106.958 306.741 C 107.623 307.023,109.214 308.188,110.493 309.329 C 111.772 310.470,113.104 311.404,113.452 311.404 C 113.801 311.404,114.906 312.168,115.908 313.101 C 116.910 314.034,118.088 314.805,118.525 314.814 C 118.963 314.824,120.085 315.586,121.018 316.508 C 121.951 317.430,122.988 318.186,123.323 318.187 C 123.658 318.189,124.337 318.498,124.831 318.873 C 125.326 319.248,126.664 319.998,127.804 320.538 C 128.944 321.078,132.010 322.531,134.617 323.767 C 137.224 325.003,139.769 326.140,140.272 326.293 C 140.776 326.447,142.735 327.226,144.627 328.024 C 151.246 330.818,168.862 335.316,176.113 336.064 C 177.283 336.185,186.138 336.288,195.792 336.294 L 213.344 336.305 218.924 335.176 C 230.161 332.902,241.253 329.859,244.947 328.035 C 246.237 327.399,248.103 326.681,249.094 326.439 C 250.085 326.198,251.163 325.771,251.491 325.489 C 251.818 325.207,252.225 324.976,252.395 324.976 C 252.688 324.976,256.044 323.460,257.681 322.587 C 258.096 322.366,258.965 321.910,259.613 321.572 C 260.260 321.235,261.267 320.585,261.849 320.127 C 262.432 319.668,263.148 319.386,263.442 319.498 C 263.736 319.611,264.481 319.278,265.099 318.758 C 265.717 318.239,266.548 317.813,266.946 317.813 C 267.345 317.813,268.370 317.135,269.225 316.305 C 270.080 315.476,271.124 314.797,271.546 314.797 C 271.988 314.797,273.072 313.973,274.098 312.856 C 275.419 311.420,276.057 310.981,276.550 311.171 C 277.055 311.364,278.112 310.548,280.881 307.828 C 283.325 305.426,284.735 304.302,285.118 304.450 C 285.915 304.755,302.730 287.872,302.741 286.755 C 302.746 286.265,304.055 284.622,306.134 282.496 C 308.192 280.392,309.519 278.729,309.519 278.255 C 309.519 277.825,310.181 276.813,310.989 276.004 C 311.797 275.196,312.568 274.035,312.703 273.423 C 312.837 272.812,313.618 271.614,314.438 270.761 C 315.258 269.907,315.928 268.870,315.928 268.455 C 315.928 268.041,316.254 267.398,316.652 267.027 C 317.050 266.656,317.501 265.844,317.655 265.221 C 317.809 264.599,318.247 263.869,318.628 263.598 C 319.029 263.313,319.321 262.643,319.321 262.009 C 319.321 261.316,319.586 260.771,320.041 260.527 C 320.473 260.296,320.862 259.547,321.012 258.658 C 321.150 257.843,321.481 257.091,321.747 256.989 C 322.014 256.887,322.428 256.025,322.667 255.075 C 322.906 254.124,323.257 253.346,323.447 253.346 C 323.637 253.346,324.056 252.436,324.380 251.324 C 324.703 250.212,325.223 248.813,325.535 248.214 C 325.847 247.615,326.104 246.897,326.105 246.618 C 326.106 246.339,326.355 245.660,326.658 245.110 C 328.616 241.552,331.738 230.621,332.706 223.940 C 333.021 221.762,333.437 219.303,333.631 218.473 C 333.825 217.644,334.190 215.014,334.442 212.630 C 334.694 210.245,335.123 207.843,335.396 207.292 C 336.192 205.687,336.332 180.584,335.545 180.584 C 334.889 180.584,334.463 178.035,334.225 172.681 C 334.092 169.682,333.837 167.053,333.659 166.838 C 333.481 166.623,333.212 165.174,333.062 163.619 C 332.912 162.064,332.482 159.821,332.106 158.635 C 331.731 157.448,331.314 155.836,331.181 155.053 C 330.890 153.347,329.722 149.449,328.719 146.835 C 328.319 145.795,327.992 144.788,327.992 144.598 C 327.992 144.408,327.672 143.563,327.281 142.720 C 325.369 138.605,324.678 136.947,324.444 135.910 C 324.192 134.796,322.951 132.058,320.170 126.474 C 319.392 124.913,318.535 123.174,318.265 122.610 C 317.995 122.045,317.611 121.329,317.412 121.018 C 317.213 120.707,316.718 119.730,316.312 118.846 C 315.907 117.963,315.130 116.776,314.586 116.207 C 314.043 115.639,313.293 114.496,312.921 113.666 C 312.549 112.837,311.720 111.664,311.079 111.059 C 310.438 110.455,309.721 109.352,309.485 108.609 C 309.250 107.866,308.158 106.324,307.058 105.184 C 305.959 104.043,304.808 102.516,304.502 101.791 C 303.827 100.191,284.336 80.679,283.413 80.679 C 283.069 80.679,281.550 79.580,280.038 78.238 C 278.526 76.895,276.849 75.700,276.311 75.582 C 275.773 75.464,274.677 74.696,273.876 73.876 C 273.075 73.056,272.121 72.385,271.755 72.385 C 271.389 72.385,270.231 71.621,269.180 70.688 C 268.129 69.755,266.961 68.992,266.583 68.992 C 266.206 68.992,265.439 68.567,264.880 68.049 C 264.321 67.531,263.474 67.107,262.998 67.107 C 262.523 67.107,261.827 66.767,261.451 66.352 C 261.076 65.938,260.585 65.598,260.360 65.598 C 260.016 65.598,256.073 63.714,254.100 62.607 C 252.662 61.800,249.334 60.320,248.957 60.320 C 248.726 60.320,248.338 60.081,248.095 59.788 C 247.852 59.495,246.771 59.052,245.693 58.803 C 244.615 58.554,243.393 58.141,242.978 57.884 C 242.564 57.628,241.571 57.297,240.773 57.149 C 239.974 57.000,238.787 56.652,238.134 56.375 C 235.967 55.456,230.941 53.989,229.061 53.727 C 228.041 53.585,226.850 53.236,226.414 52.950 C 225.978 52.664,224.024 52.249,222.072 52.028 C 220.120 51.807,218.319 51.457,218.070 51.251 C 217.552 50.821,214.801 50.577,208.188 50.377 C 204.599 50.268,203.406 50.099,202.884 49.627 C 202.319 49.116,201.178 49.020,195.724 49.031 C 192.155 49.037,189.113 48.967,188.963 48.875 C 188.813 48.783,187.929 49.115,186.999 49.613 M201.481 143.730 C 201.881 143.941,203.530 144.262,205.146 144.442 C 206.761 144.623,208.942 145.110,209.993 145.524 C 211.044 145.938,212.279 146.278,212.738 146.279 C 213.197 146.280,214.251 146.699,215.080 147.210 C 215.910 147.721,216.853 148.144,217.177 148.150 C 217.501 148.157,218.130 148.501,218.575 148.916 C 219.020 149.331,219.661 149.670,220.000 149.670 C 220.338 149.670,221.520 150.444,222.627 151.389 C 223.734 152.335,224.886 153.056,225.187 152.992 C 225.488 152.927,226.610 153.680,227.682 154.665 C 228.753 155.650,229.936 156.456,230.310 156.456 C 231.165 156.456,243.519 168.771,243.718 169.822 C 243.799 170.246,243.877 170.693,243.893 170.814 C 243.908 170.936,244.684 171.809,245.617 172.756 C 246.550 173.702,247.314 174.820,247.314 175.239 C 247.314 175.659,247.972 176.652,248.776 177.445 C 249.596 178.254,250.357 179.437,250.508 180.139 C 250.657 180.826,250.999 181.474,251.270 181.578 C 251.540 181.682,251.946 182.499,252.171 183.395 C 252.397 184.291,252.838 185.122,253.152 185.243 C 253.466 185.363,253.723 185.909,253.723 186.456 C 253.723 187.003,254.126 187.929,254.618 188.514 C 255.650 189.741,255.564 191.313,254.431 191.919 C 253.950 192.177,253.723 192.712,253.723 193.591 C 253.723 194.498,253.498 195.004,252.969 195.287 C 252.538 195.518,252.215 196.077,252.215 196.591 C 252.215 197.086,251.791 197.996,251.272 198.612 C 250.754 199.228,250.330 200.076,250.330 200.497 C 250.330 200.917,249.676 201.911,248.877 202.704 C 248.077 203.498,247.302 204.647,247.154 205.258 C 247.006 205.869,246.302 206.919,245.589 207.591 C 244.877 208.263,244.083 209.419,243.824 210.161 C 243.177 212.021,231.948 223.400,230.431 223.733 C 229.830 223.865,228.690 224.637,227.898 225.448 C 227.106 226.259,225.934 227.036,225.293 227.174 C 224.652 227.313,223.530 228.071,222.798 228.859 C 222.067 229.647,220.964 230.413,220.348 230.560 C 219.731 230.707,218.932 231.084,218.570 231.398 C 218.209 231.712,217.060 232.103,216.018 232.268 C 214.976 232.433,213.679 232.917,213.137 233.343 C 212.541 233.812,211.593 234.119,210.740 234.119 C 209.964 234.119,209.125 234.364,208.877 234.664 C 208.207 235.471,204.900 236.012,201.750 235.829 C 199.291 235.687,198.955 235.748,198.793 236.367 C 198.357 238.035,191.443 237.956,191.004 236.278 C 190.841 235.655,190.696 235.590,190.264 235.949 C 189.590 236.508,182.252 235.498,181.355 234.723 C 181.035 234.446,179.937 234.112,178.915 233.979 C 177.894 233.846,176.787 233.492,176.455 233.192 C 176.123 232.892,175.093 232.537,174.165 232.403 C 173.238 232.268,172.055 231.864,171.536 231.504 C 171.018 231.144,170.170 230.740,169.651 230.605 C 169.133 230.470,167.980 229.679,167.090 228.846 C 166.174 227.990,165.096 227.333,164.607 227.333 C 164.069 227.333,163.141 226.692,162.152 225.636 C 161.207 224.629,160.227 223.940,159.738 223.940 C 158.594 223.940,146.277 211.643,146.277 210.501 C 146.277 210.041,145.533 208.918,144.581 207.937 C 143.568 206.895,142.884 205.842,142.884 205.325 C 142.884 204.785,142.245 203.859,141.188 202.868 C 139.987 201.743,139.491 200.980,139.491 200.258 C 139.491 199.647,139.189 199.050,138.737 198.768 C 138.322 198.509,137.983 197.907,137.983 197.431 C 137.983 196.955,137.580 196.018,137.086 195.350 C 135.726 193.505,135.709 187.225,137.059 184.922 C 137.567 184.055,137.983 183.141,137.983 182.892 C 137.983 182.642,138.303 182.094,138.695 181.673 C 139.087 181.253,139.507 180.410,139.629 179.800 C 139.751 179.190,140.446 178.096,141.174 177.369 C 141.901 176.641,142.612 175.583,142.753 175.016 C 143.054 173.804,144.771 171.536,145.387 171.536 C 145.623 171.536,145.924 170.985,146.056 170.311 C 146.404 168.534,158.502 156.079,159.880 156.079 C 160.466 156.079,161.269 155.622,161.946 154.902 C 162.555 154.254,163.628 153.479,164.330 153.179 C 165.032 152.879,166.490 151.967,167.569 151.152 C 168.648 150.337,169.659 149.670,169.815 149.670 C 169.970 149.670,170.528 149.331,171.055 148.917 C 171.581 148.503,172.668 147.988,173.471 147.772 C 174.273 147.556,174.929 147.223,174.929 147.031 C 174.929 146.840,175.947 146.473,177.191 146.216 C 178.435 145.959,179.453 145.629,179.453 145.482 C 179.453 145.335,180.683 145.021,182.187 144.785 C 183.690 144.549,185.683 144.179,186.616 143.962 C 191.129 142.915,199.683 142.782,201.481 143.730 M185.135 161.334 C 184.672 161.736,183.799 162.173,183.197 162.306 C 182.594 162.438,182.003 162.705,181.882 162.900 C 181.762 163.094,181.056 163.508,180.313 163.818 C 179.570 164.128,178.228 165.059,177.331 165.886 C 176.434 166.713,175.315 167.392,174.843 167.396 C 173.775 167.404,172.498 168.729,172.133 170.208 C 171.981 170.826,171.190 171.964,170.377 172.738 C 169.425 173.643,168.897 174.481,168.897 175.088 C 168.897 175.607,168.572 176.334,168.174 176.705 C 167.776 177.076,167.331 177.889,167.184 178.511 C 167.038 179.133,166.567 179.922,166.138 180.264 C 165.437 180.824,165.368 181.234,165.456 184.311 C 165.550 187.565,165.507 187.781,164.587 188.633 C 163.398 189.735,163.375 190.351,164.467 191.739 C 165.168 192.629,165.339 193.389,165.447 196.100 C 165.552 198.741,165.718 199.511,166.295 200.033 C 166.689 200.390,167.012 201.080,167.012 201.566 C 167.012 202.053,167.343 202.781,167.746 203.185 C 168.150 203.588,168.660 204.564,168.881 205.352 C 169.139 206.280,169.741 207.119,170.587 207.729 C 171.305 208.247,171.897 208.979,171.903 209.356 C 171.927 210.958,173.747 212.972,175.191 212.994 C 175.674 213.001,176.680 213.713,177.609 214.703 C 178.728 215.897,179.499 216.400,180.210 216.400 C 180.766 216.400,181.529 216.739,181.904 217.154 C 182.383 217.683,183.065 217.908,184.193 217.908 C 186.128 217.908,186.993 218.199,186.993 218.850 C 186.993 220.108,202.109 220.155,203.026 218.900 C 203.358 218.446,204.183 218.129,205.352 218.005 C 206.348 217.900,207.502 217.508,207.917 217.135 C 208.332 216.761,209.180 216.337,209.802 216.192 C 210.424 216.047,211.309 215.539,211.768 215.064 C 212.228 214.588,212.906 213.967,213.276 213.685 C 215.333 212.114,221.301 205.481,221.301 204.765 C 221.301 204.322,221.640 203.619,222.055 203.205 C 222.469 202.790,222.809 202.134,222.809 201.747 C 222.809 201.361,223.190 200.558,223.657 199.964 C 224.832 198.468,225.000 181.185,223.845 180.539 C 223.483 180.336,223.186 179.984,223.186 179.757 C 223.186 178.798,220.491 173.876,219.252 172.572 C 218.513 171.794,217.908 170.824,217.908 170.417 C 217.908 169.387,215.854 167.389,214.794 167.389 C 214.253 167.389,213.280 166.740,212.253 165.693 C 211.337 164.760,210.306 163.996,209.963 163.996 C 209.619 163.996,208.934 163.683,208.439 163.300 C 207.945 162.917,207.031 162.479,206.409 162.327 C 205.787 162.175,204.975 161.725,204.604 161.327 C 203.562 160.209,186.425 160.215,185.135 161.334 M198.632 170.422 C 198.982 170.921,199.592 171.161,200.517 171.164 C 202.531 171.172,203.528 171.528,203.783 172.331 C 203.927 172.785,204.359 173.044,204.970 173.044 C 206.366 173.044,211.613 178.222,212.199 180.179 C 212.440 180.981,212.889 181.734,213.199 181.853 C 213.623 182.016,213.761 182.719,213.761 184.723 C 213.761 186.911,213.893 187.491,214.515 188.023 C 215.006 188.444,215.269 189.136,215.269 190.009 C 215.269 190.883,215.006 191.575,214.515 191.995 C 213.894 192.527,213.761 193.108,213.761 195.287 C 213.761 197.467,213.628 198.048,213.007 198.579 C 212.592 198.935,212.253 199.631,212.253 200.127 C 212.253 201.389,207.091 206.649,205.197 207.318 C 204.412 207.595,203.480 208.075,203.126 208.385 C 202.771 208.695,201.686 209.038,200.714 209.148 C 199.722 209.260,198.641 209.653,198.248 210.046 C 197.240 211.054,192.597 211.052,191.626 210.044 C 191.245 209.647,190.143 209.237,189.088 209.098 C 188.026 208.959,186.881 208.531,186.425 208.103 C 185.985 207.690,185.262 207.352,184.818 207.352 C 183.806 207.352,177.945 201.641,177.945 200.655 C 177.945 200.272,177.521 199.383,177.003 198.680 C 176.354 197.801,176.060 196.915,176.060 195.838 C 176.060 194.752,175.830 194.065,175.306 193.591 C 174.462 192.827,174.288 190.802,175.005 190.085 C 175.311 189.779,177.063 189.632,180.420 189.632 C 184.671 189.632,185.513 189.532,186.283 188.936 C 186.777 188.553,187.629 188.130,188.175 187.997 C 188.722 187.864,190.376 186.571,191.851 185.125 L 194.533 182.495 194.539 176.922 C 194.544 170.782,194.690 169.774,195.609 169.520 C 196.667 169.226,198.091 169.651,198.632 170.422 " stroke="none" fill="#c851c1" fill-rule="evenodd"></path><path id="SvgjsPath1030" d="M0.000 188.501 L 0.000 377.003 200.000 377.003 L 400.000 377.003 400.000 188.501 L 400.000 0.000 200.000 0.000 L 0.000 0.000 0.000 188.501 M203.362 49.213 C 204.015 49.641,205.741 49.843,210.039 49.993 C 213.464 50.112,216.572 50.420,217.639 50.746 C 218.632 51.049,220.810 51.468,222.478 51.678 C 224.146 51.887,226.133 52.297,226.893 52.590 C 227.653 52.882,229.246 53.293,230.434 53.502 C 231.621 53.711,233.063 54.123,233.638 54.417 C 234.213 54.711,235.278 55.075,236.004 55.225 C 236.730 55.376,238.765 56.004,240.528 56.622 C 242.290 57.240,244.718 58.068,245.922 58.464 C 248.308 59.246,264.867 67.287,265.199 67.824 C 265.311 68.005,265.851 68.266,266.399 68.404 C 266.947 68.541,268.178 69.305,269.136 70.101 C 270.093 70.896,271.233 71.654,271.670 71.785 C 272.106 71.916,273.209 72.693,274.120 73.512 C 275.032 74.331,276.207 75.096,276.732 75.213 C 277.257 75.329,278.699 76.358,279.936 77.500 C 281.174 78.642,282.762 79.825,283.465 80.130 C 285.107 80.842,303.541 99.122,304.479 100.970 C 304.867 101.732,306.244 103.592,307.540 105.102 C 308.836 106.612,309.896 108.066,309.896 108.334 C 309.896 108.603,310.660 109.805,311.593 111.007 C 312.526 112.208,313.289 113.326,313.289 113.489 C 313.289 113.653,313.946 114.618,314.749 115.634 C 315.552 116.649,316.335 117.895,316.490 118.401 C 316.645 118.907,316.999 119.582,317.278 119.901 C 317.557 120.219,318.048 121.068,318.370 121.786 C 318.692 122.504,319.112 123.346,319.303 123.657 C 320.314 125.304,324.548 134.578,324.778 135.649 C 324.926 136.335,325.642 138.186,326.370 139.762 C 327.699 142.639,328.059 143.598,330.161 149.859 C 331.497 153.836,333.103 160.593,333.478 163.808 C 333.623 165.052,333.908 166.388,334.110 166.777 C 334.313 167.166,334.644 170.050,334.847 173.186 C 335.049 176.322,335.437 179.397,335.709 180.019 C 337.036 183.051,337.235 204.876,335.958 207.262 C 335.706 207.731,335.171 210.531,334.768 213.483 C 333.799 220.590,332.321 228.946,331.387 232.605 C 329.874 238.531,323.921 254.315,322.001 257.493 C 321.169 258.871,319.698 262.133,319.698 262.603 C 319.698 262.886,319.383 263.422,318.998 263.793 C 318.612 264.164,318.193 264.903,318.065 265.435 C 317.938 265.967,317.490 266.799,317.070 267.283 C 316.649 267.768,316.305 268.443,316.305 268.783 C 316.305 269.123,315.626 270.130,314.796 271.020 C 313.966 271.910,313.178 273.090,313.044 273.643 C 312.910 274.195,312.236 275.279,311.545 276.052 C 310.855 276.825,310.044 278.012,309.742 278.691 C 309.440 279.369,307.824 281.359,306.152 283.112 C 304.369 284.980,303.110 286.619,303.110 287.073 C 303.110 288.128,286.436 304.740,284.637 305.478 C 283.911 305.776,281.965 307.316,280.312 308.900 C 278.602 310.538,276.976 311.783,276.541 311.786 C 276.121 311.788,275.012 312.527,274.077 313.428 C 273.142 314.329,271.993 315.188,271.522 315.337 C 271.052 315.487,269.899 316.274,268.958 317.088 C 268.018 317.902,266.919 318.567,266.514 318.567 C 266.110 318.567,265.489 318.907,265.134 319.321 C 264.779 319.736,264.140 320.075,263.714 320.075 C 263.287 320.075,262.538 320.356,262.048 320.699 C 260.066 322.088,252.723 325.509,248.256 327.125 C 246.805 327.650,245.437 328.224,245.217 328.400 C 244.587 328.905,233.740 332.395,231.857 332.700 C 230.924 332.851,227.870 333.539,225.071 334.229 C 214.435 336.852,214.910 336.810,195.664 336.826 C 176.108 336.842,174.492 336.713,165.316 334.403 C 162.205 333.619,158.651 332.771,157.417 332.517 C 150.935 331.181,133.098 324.025,125.919 319.879 C 125.401 319.580,124.383 319.060,123.657 318.723 C 122.931 318.387,121.579 317.493,120.651 316.737 C 119.723 315.981,118.833 315.342,118.672 315.316 C 118.511 315.290,118.210 315.247,118.003 315.221 C 117.796 315.196,116.990 314.604,116.212 313.906 C 115.434 313.209,114.204 312.340,113.478 311.977 C 112.752 311.613,111.225 310.513,110.085 309.532 C 108.944 308.552,107.418 307.450,106.692 307.084 C 104.546 306.003,86.009 287.392,85.113 285.421 C 84.697 284.504,83.359 282.760,82.140 281.545 C 80.922 280.330,79.925 279.008,79.925 278.606 C 79.925 278.205,79.161 277.017,78.228 275.966 C 77.295 274.915,76.532 273.736,76.532 273.345 C 76.532 272.954,75.853 271.928,75.023 271.064 C 74.193 270.201,73.403 269.042,73.268 268.489 C 73.133 267.936,72.902 267.399,72.754 267.295 C 72.151 266.872,64.844 251.502,64.844 250.657 C 64.844 250.155,64.613 249.409,64.330 249.000 C 64.047 248.591,63.685 247.832,63.526 247.314 C 63.367 246.795,62.941 245.947,62.579 245.429 C 62.217 244.910,61.802 243.775,61.657 242.906 C 61.511 242.037,61.067 240.686,60.668 239.905 C 60.270 239.123,59.943 238.087,59.943 237.602 C 59.943 237.117,59.699 236.248,59.401 235.671 C 59.103 235.094,58.653 233.109,58.402 231.260 C 58.151 229.411,57.719 227.445,57.442 226.890 C 57.165 226.336,56.839 224.640,56.718 223.120 C 56.597 221.601,56.213 219.595,55.864 218.662 C 54.979 216.291,54.889 170.063,55.767 168.520 C 56.062 168.002,56.426 166.089,56.578 164.270 C 56.729 162.451,57.098 160.585,57.397 160.123 C 57.697 159.661,58.058 157.867,58.201 156.135 C 58.360 154.199,58.745 152.425,59.201 151.532 C 59.610 150.732,59.944 149.689,59.945 149.214 C 59.946 148.739,60.265 147.828,60.655 147.188 C 61.045 146.549,61.490 145.276,61.644 144.361 C 61.799 143.445,62.242 142.291,62.631 141.796 C 63.019 141.302,63.336 140.659,63.336 140.368 C 63.336 140.076,63.676 139.173,64.090 138.360 C 64.505 137.547,64.844 136.535,64.844 136.111 C 64.844 135.461,68.274 128.095,70.379 124.222 C 70.718 123.600,71.373 122.328,71.835 121.395 C 72.298 120.462,73.034 119.375,73.472 118.981 C 74.288 118.245,76.532 114.080,76.532 113.301 C 76.532 113.062,77.295 111.973,78.228 110.880 C 79.161 109.787,79.925 108.614,79.925 108.274 C 79.925 107.934,80.852 106.718,81.986 105.572 C 83.120 104.425,84.368 102.827,84.760 102.020 C 85.763 99.954,105.795 79.925,106.857 79.925 C 107.335 79.925,108.550 79.023,109.870 77.689 C 111.086 76.460,112.503 75.349,113.018 75.219 C 113.533 75.090,114.880 74.230,116.012 73.307 C 117.145 72.385,118.250 71.631,118.469 71.631 C 118.688 71.631,119.563 71.066,120.414 70.375 C 121.995 69.092,124.496 67.737,133.459 63.306 C 141.486 59.338,142.506 58.904,148.068 57.101 C 149.053 56.781,150.368 56.339,150.990 56.117 C 151.612 55.895,152.799 55.544,153.629 55.337 C 154.458 55.130,155.815 54.649,156.645 54.268 C 157.474 53.887,159.163 53.475,160.399 53.353 C 161.726 53.223,162.937 52.868,163.359 52.485 C 163.922 51.975,164.959 51.810,168.244 51.709 C 171.606 51.604,172.605 51.441,173.390 50.865 C 174.232 50.247,175.104 50.145,179.852 50.105 C 184.746 50.065,185.484 49.973,186.677 49.252 C 188.408 48.206,201.778 48.175,203.362 49.213 M187.747 144.203 C 186.607 144.472,184.409 144.885,182.863 145.120 C 181.316 145.355,179.790 145.776,179.470 146.055 C 179.150 146.334,178.096 146.676,177.128 146.815 C 176.160 146.954,175.173 147.303,174.934 147.591 C 174.695 147.878,174.024 148.218,173.442 148.346 C 172.860 148.474,171.820 148.994,171.133 149.501 C 170.445 150.009,169.722 150.424,169.526 150.424 C 169.330 150.424,168.434 151.103,167.534 151.932 C 166.634 152.762,165.561 153.440,165.148 153.440 C 164.736 153.440,163.539 154.204,162.488 155.137 C 161.438 156.070,160.209 156.833,159.758 156.833 C 158.662 156.833,146.782 168.963,146.466 170.405 C 146.343 170.964,145.668 171.979,144.965 172.660 C 144.263 173.340,143.477 174.426,143.218 175.073 C 142.959 175.720,142.252 176.825,141.647 177.530 C 141.043 178.234,140.227 179.506,139.836 180.357 C 139.444 181.208,138.964 182.158,138.768 182.469 C 136.859 185.510,135.942 193.686,137.376 194.876 C 137.664 195.115,138.085 196.050,138.313 196.953 C 138.540 197.857,138.983 198.694,139.297 198.815 C 139.611 198.935,139.868 199.445,139.868 199.949 C 139.868 200.515,140.513 201.547,141.565 202.659 C 142.498 203.647,143.261 204.818,143.261 205.261 C 143.261 205.706,143.943 206.733,144.781 207.552 C 145.617 208.368,146.423 209.501,146.572 210.069 C 146.935 211.453,158.888 223.563,159.891 223.563 C 160.301 223.563,161.452 224.326,162.449 225.259 C 163.447 226.192,164.513 226.956,164.818 226.956 C 165.123 226.956,166.356 227.719,167.557 228.652 C 168.759 229.585,169.992 230.349,170.297 230.349 C 170.602 230.349,171.283 230.688,171.810 231.103 C 172.338 231.517,173.213 231.860,173.755 231.865 C 174.297 231.870,175.421 232.182,176.253 232.560 C 177.084 232.938,178.414 233.369,179.207 233.518 C 180.001 233.667,181.272 234.107,182.031 234.496 C 183.371 235.182,187.377 235.767,189.957 235.653 C 190.767 235.618,191.394 235.830,191.695 236.242 C 192.418 237.230,197.404 237.224,198.130 236.233 C 198.584 235.614,199.226 235.510,203.011 235.442 C 206.797 235.375,207.480 235.264,208.209 234.600 C 208.699 234.153,209.781 233.758,210.811 233.650 C 211.798 233.545,213.023 233.110,213.595 232.660 C 214.223 232.166,215.158 231.857,216.023 231.857 C 216.843 231.857,217.816 231.552,218.358 231.126 C 218.869 230.724,219.718 230.287,220.245 230.155 C 220.772 230.023,221.854 229.249,222.648 228.435 C 223.443 227.621,224.368 226.956,224.704 226.956 C 225.041 226.956,226.299 226.192,227.501 225.259 C 228.702 224.326,229.942 223.563,230.255 223.563 C 231.300 223.563,242.761 211.840,243.165 210.358 C 243.364 209.627,244.210 208.362,245.044 207.548 C 245.878 206.734,246.560 205.768,246.560 205.403 C 246.560 205.037,247.323 203.878,248.256 202.828 C 249.227 201.735,249.953 200.544,249.953 200.046 C 249.953 199.567,250.292 198.867,250.707 198.492 C 251.122 198.117,251.461 197.441,251.461 196.991 C 251.461 196.541,251.885 195.774,252.403 195.287 C 252.952 194.772,253.346 193.982,253.346 193.395 C 253.346 192.841,253.685 192.081,254.100 191.706 C 255.053 190.844,255.053 189.977,254.101 188.416 C 253.687 187.737,253.348 186.911,253.347 186.581 C 253.347 186.250,253.010 185.675,252.599 185.304 C 252.189 184.932,251.746 184.057,251.615 183.360 C 251.484 182.663,251.239 182.092,251.071 182.092 C 250.903 182.092,250.559 181.456,250.308 180.679 C 250.056 179.901,249.110 178.466,248.205 177.490 C 247.300 176.514,246.560 175.379,246.560 174.968 C 246.560 174.556,245.796 173.445,244.863 172.499 C 243.859 171.480,243.167 170.430,243.167 169.925 C 243.167 168.881,231.197 156.833,230.160 156.833 C 229.790 156.833,228.621 156.094,227.562 155.190 C 226.503 154.287,225.270 153.432,224.822 153.291 C 224.375 153.150,223.442 152.537,222.749 151.929 C 219.899 149.429,211.069 145.777,205.844 144.937 C 204.081 144.654,201.928 144.246,201.058 144.030 C 198.891 143.492,190.282 143.604,187.747 144.203 M204.815 160.980 C 205.343 161.395,205.903 161.734,206.062 161.734 C 206.889 161.734,211.486 164.298,212.630 165.396 C 213.355 166.094,214.373 166.764,214.892 166.887 C 216.189 167.193,217.825 168.794,218.095 170.021 C 218.218 170.581,218.982 171.687,219.793 172.479 C 220.604 173.271,221.370 174.389,221.497 174.963 C 221.623 175.538,221.961 176.203,222.248 176.441 C 222.535 176.680,222.970 177.497,223.214 178.258 C 223.458 179.019,223.933 179.956,224.270 180.340 C 225.451 181.688,225.351 199.101,224.155 200.296 C 223.884 200.567,223.533 201.205,223.374 201.714 C 223.216 202.223,222.792 203.063,222.432 203.582 C 222.071 204.100,221.653 204.948,221.501 205.467 C 221.024 207.099,212.335 215.605,210.119 216.609 C 209.050 217.094,208.072 217.657,207.946 217.861 C 207.820 218.065,206.796 218.347,205.671 218.487 C 204.397 218.647,203.381 219.012,202.979 219.456 C 201.959 220.584,187.613 220.547,186.906 219.416 C 186.540 218.829,186.027 218.662,184.601 218.662 C 183.194 218.662,182.505 218.442,181.647 217.719 C 181.031 217.201,180.207 216.777,179.817 216.777 C 179.427 216.777,178.382 216.086,177.494 215.241 C 176.606 214.397,175.410 213.612,174.836 213.497 C 173.523 213.234,171.536 211.013,171.536 209.807 C 171.536 209.198,171.041 208.497,170.048 207.699 C 169.144 206.973,168.460 206.049,168.305 205.346 C 168.166 204.710,167.818 203.956,167.532 203.671 C 167.247 203.385,166.900 202.697,166.762 202.141 C 166.624 201.586,166.217 200.707,165.857 200.189 C 165.425 199.567,165.129 198.180,164.987 196.114 C 164.829 193.826,164.564 192.692,164.006 191.909 C 163.041 190.553,163.041 189.707,164.006 188.680 C 164.653 187.991,164.772 187.349,164.785 184.456 C 164.800 181.341,164.881 180.970,165.718 180.183 C 166.223 179.710,166.635 179.035,166.635 178.684 C 166.635 178.334,166.976 177.614,167.393 177.084 C 167.809 176.555,168.251 175.616,168.375 174.998 C 168.498 174.380,169.260 173.229,170.068 172.440 C 170.875 171.652,171.536 170.707,171.536 170.342 C 171.536 169.323,173.660 167.134,174.886 166.889 C 175.488 166.769,176.635 166.060,177.434 165.315 C 178.234 164.569,180.277 163.289,181.976 162.470 C 183.674 161.650,185.169 160.810,185.297 160.603 C 185.803 159.784,203.735 160.130,204.815 160.980 M195.692 170.381 C 195.268 170.648,195.132 172.020,195.056 176.788 L 194.959 182.854 192.013 185.662 C 190.393 187.207,188.793 188.478,188.458 188.486 C 188.123 188.495,187.364 188.883,186.771 189.350 C 185.794 190.119,185.242 190.205,180.826 190.272 C 174.658 190.365,173.394 191.113,175.628 193.347 C 176.021 193.740,176.414 194.821,176.526 195.813 C 176.636 196.785,176.981 197.870,177.293 198.225 C 177.606 198.579,177.976 199.408,178.116 200.067 C 178.402 201.413,183.906 206.975,184.952 206.975 C 185.285 206.975,186.026 207.308,186.598 207.715 C 187.170 208.123,188.384 208.567,189.295 208.702 C 190.206 208.838,191.311 209.172,191.750 209.445 C 193.318 210.421,196.861 210.538,197.986 209.650 C 198.544 209.209,199.546 208.857,200.248 208.854 C 200.941 208.851,201.932 208.609,202.451 208.317 C 202.969 208.025,204.079 207.458,204.917 207.059 C 206.918 206.105,211.344 201.622,211.613 200.278 C 211.727 199.705,212.173 198.830,212.602 198.335 C 213.212 197.632,213.384 196.920,213.384 195.092 C 213.384 193.321,213.567 192.516,214.138 191.792 C 214.552 191.264,214.892 190.420,214.892 189.914 C 214.892 189.409,214.552 188.688,214.138 188.313 C 213.527 187.760,213.384 187.152,213.384 185.108 C 213.384 183.090,213.237 182.454,212.651 181.923 C 212.248 181.559,211.804 180.739,211.664 180.103 C 211.341 178.634,206.469 173.861,204.965 173.542 C 204.379 173.417,203.702 173.000,203.461 172.614 C 203.135 172.093,202.570 171.913,201.258 171.913 C 199.925 171.913,199.218 171.682,198.372 170.971 C 197.181 169.968,196.559 169.832,195.692 170.381 " stroke="none" fill="#040404" fill-rule="evenodd"></path><path id="SvgjsPath1029" d="M186.941 49.410 L 186.051 50.186 187.182 49.524 C 188.670 48.652,188.693 48.633,188.229 48.633 C 188.010 48.633,187.430 48.983,186.941 49.410 M189.350 48.893 C 189.713 48.988,190.306 48.988,190.669 48.893 C 191.032 48.798,190.735 48.721,190.009 48.721 C 189.284 48.721,188.987 48.798,189.350 48.893 M195.947 48.899 C 196.414 48.989,197.177 48.989,197.644 48.899 C 198.110 48.810,197.729 48.736,196.795 48.736 C 195.862 48.736,195.481 48.810,195.947 48.899 M199.529 48.893 C 199.892 48.988,200.485 48.988,200.848 48.893 C 201.211 48.798,200.914 48.721,200.189 48.721 C 199.463 48.721,199.166 48.798,199.529 48.893 M180.302 50.418 C 181.287 50.496,182.898 50.496,183.883 50.418 C 184.868 50.341,184.062 50.277,182.092 50.277 C 180.123 50.277,179.317 50.341,180.302 50.418 M209.155 50.420 C 210.251 50.496,211.947 50.495,212.925 50.418 C 213.903 50.341,213.007 50.278,210.933 50.279 C 208.860 50.280,208.059 50.343,209.155 50.420 M173.593 50.922 C 173.456 51.144,172.980 51.472,172.534 51.652 C 171.982 51.875,171.916 51.986,172.326 52.002 C 172.657 52.016,173.235 51.687,173.610 51.272 C 173.985 50.858,174.191 50.518,174.067 50.518 C 173.944 50.518,173.731 50.700,173.593 50.922 M163.295 52.793 C 162.805 53.201,162.583 53.534,162.801 53.534 C 163.019 53.534,163.310 53.353,163.447 53.131 C 163.584 52.909,164.061 52.581,164.506 52.401 C 164.975 52.212,165.078 52.069,164.750 52.063 C 164.439 52.057,163.784 52.385,163.295 52.793 M166.922 52.293 C 167.391 52.383,168.070 52.380,168.430 52.285 C 168.791 52.191,168.407 52.117,167.578 52.121 C 166.748 52.126,166.453 52.203,166.922 52.293 M159.189 53.804 C 159.760 53.891,160.693 53.891,161.263 53.804 C 161.833 53.718,161.367 53.647,160.226 53.647 C 159.086 53.647,158.619 53.718,159.189 53.804 M236.822 55.788 C 237.376 55.956,238.055 56.208,238.331 56.349 C 238.606 56.491,238.502 56.339,238.099 56.013 C 237.697 55.686,237.018 55.434,236.591 55.452 C 235.969 55.478,236.014 55.544,236.822 55.788 M119.049 71.405 C 117.032 72.603,116.787 72.991,118.636 72.059 C 119.503 71.622,120.319 71.092,120.449 70.882 C 120.748 70.398,120.733 70.404,119.049 71.405 M273.893 73.893 C 274.702 74.722,275.450 75.401,275.554 75.401 C 275.657 75.401,275.079 74.722,274.270 73.893 C 273.460 73.063,272.712 72.385,272.609 72.385 C 272.505 72.385,273.083 73.063,273.893 73.893 M276.751 75.495 C 276.838 75.547,277.418 76.013,278.040 76.532 L 279.171 77.474 278.257 76.437 C 277.754 75.867,277.174 75.401,276.969 75.401 C 276.763 75.401,276.665 75.443,276.751 75.495 M101.967 84.166 L 99.717 86.522 102.074 84.272 C 104.262 82.182,104.602 81.810,104.324 81.810 C 104.265 81.810,103.205 82.870,101.967 84.166 M97.814 88.313 L 96.324 89.915 97.926 88.425 C 99.417 87.039,99.702 86.711,99.417 86.711 C 99.355 86.711,98.634 87.432,97.814 88.313 M93.673 92.460 L 91.423 94.816 93.779 92.566 C 95.075 91.328,96.136 90.268,96.136 90.210 C 96.136 89.931,95.764 90.271,93.673 92.460 M87.821 98.303 L 86.522 99.717 87.936 98.418 C 89.252 97.209,89.523 96.890,89.235 96.890 C 89.172 96.890,88.536 97.526,87.821 98.303 M302.356 98.963 C 303.060 99.689,303.720 100.283,303.824 100.283 C 303.927 100.283,303.437 99.689,302.733 98.963 C 302.030 98.238,301.370 97.644,301.266 97.644 C 301.162 97.644,301.653 98.238,302.356 98.963 M78.396 111.122 L 77.097 112.535 78.511 111.236 C 79.827 110.027,80.098 109.708,79.810 109.708 C 79.747 109.708,79.111 110.344,78.396 111.122 M65.023 136.192 C 64.878 137.074,64.576 138.049,64.351 138.360 C 63.989 138.863,64.010 138.863,64.545 138.360 C 65.101 137.838,65.903 134.590,65.476 134.590 C 65.373 134.590,65.169 135.311,65.023 136.192 M193.315 143.157 C 193.993 143.241,195.010 143.239,195.577 143.153 C 196.143 143.067,195.589 142.999,194.345 143.001 C 193.101 143.003,192.637 143.073,193.315 143.157 M61.828 144.497 C 61.828 145.176,61.560 146.152,61.233 146.664 L 60.637 147.597 61.421 146.707 C 62.109 145.926,62.569 143.261,62.017 143.261 C 61.913 143.261,61.828 143.817,61.828 144.497 M187.370 143.882 C 185.978 144.442,186.829 144.359,189.255 143.698 C 190.282 143.418,190.366 143.340,189.632 143.345 C 189.114 143.348,188.096 143.590,187.370 143.882 M199.152 143.521 C 199.515 143.616,200.108 143.616,200.471 143.521 C 200.834 143.426,200.537 143.349,199.811 143.349 C 199.086 143.349,198.789 143.426,199.152 143.521 M171.631 148.535 C 169.928 149.573,170.087 149.827,171.819 148.835 C 173.561 147.838,173.631 147.785,173.201 147.787 C 173.011 147.787,172.304 148.124,171.631 148.535 M60.000 149.877 C 59.969 150.510,59.733 151.273,59.475 151.574 C 59.216 151.875,59.314 151.848,59.693 151.512 C 60.156 151.102,60.327 150.547,60.218 149.815 L 60.056 148.728 60.000 149.877 M166.678 151.763 C 165.769 152.478,165.220 153.063,165.459 153.063 C 165.697 153.063,166.526 152.474,167.301 151.754 C 169.095 150.085,168.807 150.089,166.678 151.763 M226.579 154.006 C 227.282 154.731,227.942 155.325,228.046 155.325 C 228.150 155.325,227.659 154.731,226.956 154.006 C 226.252 153.280,225.592 152.686,225.488 152.686 C 225.385 152.686,225.875 153.280,226.579 154.006 M162.343 154.571 C 161.370 155.468,160.336 156.079,159.791 156.079 C 159.192 156.079,158.293 156.688,157.194 157.838 L 155.514 159.596 157.109 158.309 C 157.987 157.601,158.708 156.894,158.711 156.739 C 158.715 156.583,159.198 156.456,159.783 156.456 C 160.451 156.456,161.190 156.086,161.763 155.464 C 162.265 154.918,163.186 154.155,163.808 153.768 C 164.430 153.382,164.723 153.065,164.459 153.065 C 164.195 153.064,163.243 153.742,162.343 154.571 M58.523 155.325 C 58.523 156.051,58.600 156.348,58.695 155.985 C 58.790 155.622,58.790 155.028,58.695 154.665 C 58.600 154.303,58.523 154.599,58.523 155.325 M153.817 161.275 C 152.516 162.581,152.514 162.589,153.662 161.808 C 154.927 160.947,155.994 159.819,155.466 159.900 C 155.285 159.927,154.543 160.546,153.817 161.275 M189.538 160.499 C 190.212 160.583,191.315 160.583,191.989 160.499 C 192.663 160.415,192.111 160.347,190.763 160.347 C 189.416 160.347,188.864 160.415,189.538 160.499 M57.076 161.137 C 56.963 161.430,56.932 162.151,57.007 162.739 C 57.117 163.611,57.176 163.513,57.328 162.205 C 57.518 160.557,57.435 160.202,57.076 161.137 M149.576 165.787 C 147.978 167.394,146.545 168.878,146.391 169.086 C 146.237 169.293,147.591 168.024,149.399 166.267 C 151.207 164.509,152.686 163.024,152.686 162.968 C 152.686 162.699,152.281 163.066,149.576 165.787 M56.616 166.277 C 56.580 167.221,56.340 168.238,56.082 168.539 C 55.811 168.855,55.900 168.832,56.295 168.482 C 56.811 168.026,56.941 167.476,56.829 166.220 L 56.682 164.562 56.616 166.277 M334.137 169.651 C 334.137 170.792,334.208 171.258,334.295 170.688 C 334.381 170.118,334.381 169.185,334.295 168.615 C 334.208 168.044,334.137 168.511,334.137 169.651 M55.527 170.971 C 55.530 172.008,55.603 172.387,55.690 171.814 C 55.777 171.241,55.774 170.393,55.685 169.929 C 55.595 169.465,55.524 169.934,55.527 170.971 M195.570 169.534 C 195.207 169.629,194.910 169.870,194.910 170.069 C 194.910 170.292,195.164 170.301,195.570 170.092 C 195.933 169.906,196.484 169.659,196.795 169.543 C 197.526 169.273,196.598 169.265,195.570 169.534 M198.395 170.405 C 198.864 171.194,199.257 171.354,200.797 171.388 L 202.639 171.429 200.943 171.274 C 199.794 171.170,199.018 170.852,198.540 170.291 L 197.834 169.463 198.395 170.405 M194.686 176.626 C 194.687 179.943,194.744 181.250,194.814 179.530 C 194.884 177.809,194.884 175.095,194.813 173.498 C 194.743 171.901,194.686 173.308,194.686 176.626 M143.884 172.882 C 142.431 174.703,142.763 174.774,144.342 172.979 C 145.040 172.186,145.464 171.536,145.284 171.536 C 145.105 171.536,144.474 172.142,143.884 172.882 M55.166 178.511 C 55.168 179.962,55.236 180.510,55.318 179.728 C 55.399 178.945,55.398 177.758,55.315 177.089 C 55.231 176.419,55.164 177.059,55.166 178.511 M224.412 182.281 C 224.416 183.110,224.493 183.405,224.583 182.936 C 224.673 182.467,224.670 181.789,224.576 181.428 C 224.481 181.068,224.408 181.451,224.412 182.281 M335.846 182.458 C 335.767 183.281,335.823 184.257,335.968 184.626 C 336.121 185.012,336.245 184.375,336.260 183.129 C 336.290 180.637,336.056 180.257,335.846 182.458 M55.130 183.223 C 55.130 183.949,55.207 184.246,55.302 183.883 C 55.397 183.520,55.397 182.926,55.302 182.564 C 55.207 182.201,55.130 182.498,55.130 183.223 M165.230 183.600 C 165.230 184.533,165.303 184.915,165.393 184.449 C 165.483 183.982,165.483 183.219,165.393 182.752 C 165.303 182.286,165.230 182.667,165.230 183.600 M192.603 184.383 L 190.952 185.920 192.743 184.492 C 193.728 183.706,194.533 183.015,194.533 182.955 C 194.533 182.664,194.122 182.969,192.603 184.383 M137.129 184.828 L 136.464 186.051 137.224 185.161 C 137.870 184.404,138.215 183.595,137.889 183.603 C 137.837 183.604,137.495 184.155,137.129 184.828 M136.215 188.313 C 136.217 189.557,136.287 190.021,136.371 189.343 C 136.455 188.665,136.453 187.647,136.367 187.081 C 136.281 186.514,136.213 187.069,136.215 188.313 M190.009 186.873 C 190.009 187.083,189.628 187.439,189.161 187.664 C 188.695 187.889,188.493 188.085,188.712 188.099 C 189.346 188.139,190.603 187.084,190.292 186.773 C 190.136 186.618,190.009 186.663,190.009 186.873 M224.835 190.575 C 224.836 192.856,224.898 193.740,224.973 192.540 C 225.048 191.341,225.047 189.474,224.971 188.393 C 224.895 187.312,224.834 188.294,224.835 190.575 M186.497 188.784 C 185.954 189.328,184.895 189.481,180.478 189.653 L 175.118 189.862 180.228 189.936 C 185.145 190.007,185.387 189.974,186.616 189.067 C 187.319 188.549,187.728 188.124,187.524 188.124 C 187.321 188.124,186.859 188.421,186.497 188.784 M136.193 192.837 C 136.197 193.666,136.274 193.961,136.365 193.492 C 136.455 193.023,136.451 192.345,136.357 191.984 C 136.263 191.624,136.189 192.008,136.193 192.837 M165.254 196.041 C 165.254 197.597,165.321 198.233,165.402 197.455 C 165.483 196.678,165.483 195.405,165.402 194.628 C 165.321 193.850,165.254 194.486,165.254 196.041 M224.346 198.462 C 224.330 198.861,224.036 199.497,223.693 199.876 C 223.350 200.255,223.236 200.566,223.441 200.566 C 223.975 200.566,224.818 198.848,224.579 198.246 C 224.450 197.922,224.365 198.001,224.346 198.462 M216.578 210.462 L 213.949 213.195 216.682 210.566 C 219.221 208.124,219.588 207.729,219.311 207.729 C 219.254 207.729,218.024 208.959,216.578 210.462 M147.031 211.994 C 147.031 212.058,147.582 212.610,148.256 213.219 L 149.482 214.326 148.374 213.101 C 147.342 211.959,147.031 211.702,147.031 211.994 M55.536 215.457 C 55.538 216.701,55.609 217.165,55.693 216.487 C 55.777 215.810,55.775 214.792,55.689 214.225 C 55.603 213.659,55.534 214.213,55.536 215.457 M212.818 214.061 C 212.403 214.420,211.817 215.050,211.515 215.462 C 211.213 215.874,211.595 215.626,212.363 214.912 C 213.619 213.744,213.951 213.358,213.666 213.396 C 213.615 213.403,213.233 213.702,212.818 214.061 M176.814 214.256 C 176.814 214.320,177.366 214.872,178.040 215.481 L 179.265 216.588 178.158 215.363 C 177.125 214.221,176.814 213.964,176.814 214.256 M153.629 218.662 C 154.650 219.698,155.570 220.547,155.674 220.547 C 155.777 220.547,155.027 219.698,154.006 218.662 C 152.984 217.625,152.064 216.777,151.960 216.777 C 151.857 216.777,152.607 217.625,153.629 218.662 M182.044 217.625 C 182.406 218.087,183.029 218.266,184.118 218.221 L 185.674 218.158 184.171 218.005 C 183.344 217.920,182.411 217.652,182.097 217.408 C 181.600 217.022,181.593 217.049,182.044 217.625 M56.053 218.292 C 56.298 218.607,56.565 219.625,56.647 220.554 L 56.796 222.243 56.862 220.499 C 56.909 219.229,56.748 218.613,56.268 218.237 C 55.691 217.785,55.664 217.792,56.053 218.292 M192.743 220.072 C 194.142 220.145,196.433 220.145,197.832 220.072 C 199.232 220.000,198.087 219.940,195.287 219.940 C 192.488 219.940,191.343 220.000,192.743 220.072 M57.023 223.751 C 57.027 224.581,57.104 224.875,57.194 224.407 C 57.284 223.938,57.281 223.259,57.186 222.899 C 57.092 222.538,57.018 222.922,57.023 223.751 M58.435 230.703 C 58.435 231.313,58.570 231.895,58.734 231.997 C 58.898 232.098,58.964 231.599,58.881 230.888 C 58.696 229.303,58.435 229.196,58.435 230.703 M59.470 235.261 C 59.706 235.578,60.073 236.681,60.287 237.712 L 60.677 239.585 60.494 237.709 C 60.389 236.627,60.043 235.590,59.677 235.259 C 59.108 234.744,59.087 234.744,59.470 235.261 M62.822 245.306 C 63.057 245.477,63.343 245.957,63.457 246.371 C 63.620 246.966,63.649 246.932,63.595 246.212 C 63.556 245.710,63.270 245.231,62.959 245.147 C 62.586 245.046,62.539 245.100,62.822 245.306 M63.713 247.516 C 63.713 247.683,63.952 248.088,64.243 248.415 C 64.535 248.743,64.955 249.774,65.177 250.707 L 65.580 252.403 65.388 250.750 C 65.232 249.403,63.713 246.471,63.713 247.516 M68.615 258.896 C 68.615 259.115,68.964 259.695,69.391 260.184 L 70.167 261.074 69.505 259.943 C 68.633 258.455,68.615 258.433,68.615 258.896 M76.307 272.141 C 77.105 273.040,77.286 273.122,77.286 272.586 C 77.286 272.386,76.904 272.022,76.437 271.777 C 75.594 271.335,75.593 271.337,76.307 272.141 M79.417 276.720 C 79.657 277.031,79.930 277.710,80.026 278.228 L 80.199 279.171 80.250 278.180 C 80.279 277.634,80.006 276.957,79.642 276.672 C 79.068 276.222,79.039 276.228,79.417 276.720 M88.219 288.973 C 88.922 289.698,89.582 290.292,89.686 290.292 C 89.790 290.292,89.299 289.698,88.596 288.973 C 87.892 288.247,87.232 287.653,87.128 287.653 C 87.025 287.653,87.515 288.247,88.219 288.973 " stroke="none" fill="#733a91" fill-rule="evenodd"></path><path id="SvgjsPath1028" d="M193.497 48.893 C 193.860 48.988,194.453 48.988,194.816 48.893 C 195.179 48.798,194.882 48.721,194.156 48.721 C 193.431 48.721,193.134 48.798,193.497 48.893 M201.885 48.911 C 202.300 49.015,202.974 49.335,203.383 49.621 C 203.809 49.920,204.934 50.118,206.022 50.086 L 207.917 50.031 205.765 49.800 C 204.581 49.673,203.402 49.359,203.145 49.101 C 202.887 48.844,202.329 48.653,201.904 48.677 C 201.146 48.720,201.146 48.725,201.885 48.911 M175.212 50.414 C 175.886 50.498,176.989 50.498,177.663 50.414 C 178.336 50.330,177.785 50.262,176.437 50.262 C 175.090 50.262,174.538 50.330,175.212 50.414 M166.554 51.928 C 167.649 52.004,169.346 52.003,170.324 51.926 C 171.302 51.849,170.405 51.786,168.332 51.787 C 166.258 51.788,165.458 51.851,166.554 51.928 M257.663 64.061 C 257.904 64.451,260.520 65.713,260.705 65.529 C 260.778 65.455,260.081 65.023,259.154 64.570 C 258.227 64.117,257.556 63.888,257.663 64.061 M110.462 77.097 C 109.546 78.030,108.882 78.794,108.985 78.794 C 109.089 78.794,109.923 78.030,110.839 77.097 C 111.755 76.164,112.419 75.401,112.315 75.401 C 112.212 75.401,111.378 76.164,110.462 77.097 M277.818 75.904 C 278.369 76.591,280.490 78.206,280.490 77.940 C 280.490 77.857,279.769 77.216,278.888 76.515 C 278.007 75.815,277.525 75.540,277.818 75.904 M283.318 80.366 C 283.732 80.596,284.334 80.972,284.656 81.203 C 284.977 81.433,284.840 81.239,284.352 80.773 C 283.864 80.306,283.261 79.930,283.014 79.936 C 282.766 79.942,282.903 80.136,283.318 80.366 M294.628 90.858 C 299.601 95.834,303.755 99.906,303.858 99.906 C 303.962 99.906,299.978 95.834,295.005 90.858 C 290.032 85.881,285.878 81.810,285.774 81.810 C 285.670 81.810,289.655 85.881,294.628 90.858 M304.995 102.663 C 304.995 102.728,305.547 103.279,306.221 103.888 L 307.446 104.995 306.339 103.770 C 305.306 102.628,304.995 102.371,304.995 102.663 M82.166 105.467 L 80.867 106.880 82.281 105.581 C 83.597 104.372,83.868 104.053,83.580 104.053 C 83.517 104.053,82.881 104.689,82.166 105.467 M78.440 110.621 L 77.145 112.158 78.610 110.757 C 79.416 109.986,79.999 109.295,79.906 109.220 C 79.812 109.145,79.153 109.776,78.440 110.621 M309.896 109.202 C 309.896 109.408,310.363 109.988,310.933 110.490 L 311.970 111.404 311.027 110.273 C 310.509 109.651,310.042 109.072,309.991 108.985 C 309.939 108.899,309.896 108.997,309.896 109.202 M313.289 114.050 C 313.289 114.194,313.968 115.165,314.797 116.206 C 315.627 117.248,316.305 117.988,316.305 117.852 C 316.305 117.715,315.627 116.744,314.797 115.695 C 313.968 114.646,313.289 113.905,313.289 114.050 M73.303 119.227 L 72.196 120.452 73.421 119.345 C 74.563 118.313,74.820 118.002,74.529 118.002 C 74.464 118.002,73.912 118.553,73.303 119.227 M318.214 122.089 C 318.201 122.368,318.530 123.027,318.944 123.554 C 319.359 124.081,319.698 124.330,319.698 124.107 C 319.698 123.884,319.517 123.589,319.295 123.452 C 319.073 123.315,318.745 122.838,318.565 122.393 C 318.385 121.948,318.227 121.811,318.214 122.089 M70.345 123.980 C 69.928 124.654,69.336 126.467,69.650 126.107 C 70.066 125.631,70.914 123.657,70.702 123.657 C 70.615 123.657,70.454 123.802,70.345 123.980 M321.586 129.020 C 321.585 129.171,321.922 129.849,322.336 130.528 C 322.750 131.207,323.088 131.593,323.088 131.385 C 323.087 131.178,322.749 130.500,322.337 129.877 C 321.925 129.255,321.587 128.870,321.586 129.020 M192.366 143.540 C 193.558 143.614,195.509 143.614,196.701 143.540 C 197.893 143.465,196.918 143.404,194.533 143.404 C 192.149 143.404,191.173 143.465,192.366 143.540 M184.826 144.652 C 185.189 144.747,185.782 144.747,186.145 144.652 C 186.508 144.557,186.211 144.480,185.485 144.480 C 184.760 144.480,184.463 144.557,184.826 144.652 M179.246 145.868 C 179.049 146.058,178.464 146.289,177.945 146.382 L 177.003 146.551 177.993 146.603 C 178.538 146.631,179.195 146.400,179.453 146.089 C 179.966 145.470,179.820 145.315,179.246 145.868 M173.798 147.836 C 172.819 148.373,172.722 148.498,173.421 148.320 C 173.940 148.189,174.612 147.845,174.916 147.556 C 175.613 146.894,175.438 146.937,173.798 147.836 M170.217 149.696 C 169.595 150.094,169.279 150.421,169.515 150.422 C 169.751 150.423,170.345 150.090,170.835 149.683 C 171.956 148.749,171.686 148.755,170.217 149.696 M330.094 150.424 C 330.232 150.943,330.503 151.621,330.695 151.932 C 330.938 152.325,330.968 152.210,330.792 151.555 C 330.654 151.037,330.383 150.358,330.191 150.047 C 329.948 149.654,329.918 149.769,330.094 150.424 M220.547 150.151 C 220.547 150.223,221.098 150.686,221.772 151.179 C 222.530 151.734,222.793 151.825,222.463 151.418 C 221.961 150.800,220.547 149.865,220.547 150.151 M167.738 151.415 C 167.235 151.960,166.315 152.631,165.693 152.908 C 164.963 153.232,164.801 153.416,165.236 153.425 C 165.823 153.438,169.441 150.458,168.869 150.434 C 168.749 150.428,168.240 150.870,167.738 151.415 M225.071 153.328 C 225.382 153.442,226.145 153.980,226.767 154.524 L 227.898 155.514 226.791 154.288 C 226.182 153.615,225.418 153.077,225.094 153.093 C 224.587 153.119,224.584 153.151,225.071 153.328 M162.091 155.231 L 160.792 156.645 162.205 155.345 C 162.983 154.631,163.619 153.995,163.619 153.932 C 163.619 153.644,163.300 153.915,162.091 155.231 M58.166 157.022 C 58.169 158.058,58.242 158.438,58.329 157.865 C 58.416 157.292,58.413 156.443,58.324 155.980 C 58.234 155.516,58.163 155.985,58.166 157.022 M158.561 157.075 C 158.382 157.541,158.442 157.598,158.804 157.304 C 159.068 157.090,159.623 156.831,160.038 156.729 C 160.633 156.583,160.581 156.534,159.795 156.500 C 159.189 156.473,158.706 156.699,158.561 157.075 M156.621 158.779 C 155.515 159.970,155.515 159.971,156.534 159.251 C 157.096 158.854,157.642 158.318,157.748 158.058 C 158.040 157.343,157.830 157.477,156.621 158.779 M235.815 161.734 C 237.464 163.393,238.898 164.750,239.002 164.750 C 239.106 164.750,237.841 163.393,236.192 161.734 C 234.543 160.075,233.109 158.718,233.005 158.718 C 232.902 158.718,234.166 160.075,235.815 161.734 M184.784 160.993 C 183.615 161.966,184.143 161.955,185.383 160.980 C 185.910 160.566,186.191 160.232,186.007 160.239 C 185.824 160.246,185.273 160.585,184.784 160.993 M193.879 160.497 C 194.452 160.583,195.300 160.581,195.764 160.492 C 196.228 160.402,195.759 160.331,194.722 160.334 C 193.685 160.337,193.306 160.410,193.879 160.497 M202.168 160.486 C 202.531 160.581,203.124 160.581,203.487 160.486 C 203.850 160.391,203.553 160.314,202.828 160.314 C 202.102 160.314,201.805 160.391,202.168 160.486 M56.645 163.431 C 56.650 164.260,56.727 164.555,56.817 164.086 C 56.907 163.617,56.904 162.939,56.809 162.578 C 56.715 162.218,56.641 162.601,56.645 163.431 M179.925 163.427 C 179.251 163.720,178.699 164.049,178.699 164.158 C 178.699 164.392,180.609 163.616,181.131 163.171 C 181.626 162.749,181.352 162.807,179.925 163.427 M333.358 164.750 C 333.358 165.476,333.436 165.773,333.530 165.410 C 333.625 165.047,333.625 164.453,333.530 164.090 C 333.436 163.728,333.358 164.025,333.358 164.750 M213.295 166.215 C 213.972 166.861,214.807 167.389,215.151 167.389 C 215.494 167.389,216.127 167.686,216.558 168.049 C 217.341 168.708,217.341 168.708,216.624 167.861 C 216.229 167.394,215.606 167.012,215.239 167.012 C 214.872 167.012,214.008 166.569,213.318 166.027 L 212.064 165.042 213.295 166.215 M148.010 167.729 C 146.982 168.773,146.278 169.799,146.392 170.086 C 146.551 170.485,146.601 170.475,146.624 170.041 C 146.641 169.737,147.454 168.677,148.431 167.685 C 149.408 166.693,150.122 165.881,150.019 165.881 C 149.915 165.881,149.011 166.713,148.010 167.729 M240.936 167.107 C 241.023 167.158,241.602 167.625,242.224 168.143 L 243.355 169.086 242.441 168.049 C 241.939 167.479,241.359 167.012,241.153 167.012 C 240.947 167.012,240.850 167.055,240.936 167.107 M334.531 171.725 C 334.532 173.384,334.598 174.015,334.678 173.129 C 334.758 172.242,334.757 170.885,334.676 170.113 C 334.595 169.340,334.529 170.066,334.531 171.725 M195.496 170.155 C 195.117 170.433,194.901 170.899,195.017 171.192 C 195.174 171.588,195.236 171.557,195.258 171.072 C 195.309 169.950,197.069 169.806,198.219 170.830 C 198.988 171.516,199.094 171.549,198.669 170.971 C 197.600 169.517,196.690 169.283,195.496 170.155 M55.166 173.610 C 55.168 175.061,55.236 175.609,55.318 174.827 C 55.399 174.044,55.398 172.857,55.315 172.188 C 55.231 171.518,55.164 172.158,55.166 173.610 M144.440 172.847 C 143.584 173.776,142.889 174.751,142.896 175.015 C 142.902 175.279,143.094 175.156,143.322 174.741 C 143.550 174.326,144.342 173.351,145.083 172.573 C 145.824 171.795,146.332 171.159,146.213 171.159 C 146.094 171.159,145.296 171.919,144.440 172.847 M169.873 172.633 C 169.082 173.443,168.525 174.334,168.636 174.612 C 168.794 175.008,168.844 174.999,168.868 174.568 C 168.884 174.266,169.525 173.375,170.293 172.589 C 171.061 171.803,171.604 171.159,171.501 171.159 C 171.397 171.159,170.665 171.822,169.873 172.633 M219.625 172.691 C 220.443 173.637,221.189 174.353,221.282 174.281 C 221.376 174.208,220.707 173.434,219.795 172.560 L 218.138 170.971 219.625 172.691 M200.288 171.807 C 200.861 171.893,201.709 171.891,202.173 171.802 C 202.637 171.712,202.168 171.641,201.131 171.644 C 200.094 171.647,199.715 171.720,200.288 171.807 M205.505 173.516 C 205.595 173.567,206.514 174.373,207.547 175.306 L 209.425 177.003 207.744 175.212 C 206.820 174.227,205.901 173.421,205.702 173.421 C 205.503 173.421,205.415 173.464,205.505 173.516 M246.048 173.798 C 246.285 174.109,246.562 174.703,246.664 175.118 C 246.840 175.834,246.852 175.832,246.893 175.070 C 246.917 174.629,246.640 174.035,246.277 173.750 C 245.703 173.300,245.673 173.306,246.048 173.798 M334.886 177.003 C 334.889 178.040,334.962 178.419,335.049 177.846 C 335.136 177.273,335.133 176.425,335.044 175.961 C 334.954 175.497,334.884 175.966,334.886 177.003 M248.256 177.568 C 249.066 178.398,249.814 179.076,249.917 179.076 C 250.021 179.076,249.443 178.398,248.633 177.568 C 247.823 176.739,247.076 176.060,246.972 176.060 C 246.869 176.060,247.446 176.739,248.256 177.568 M194.998 177.568 C 194.998 178.294,195.076 178.591,195.170 178.228 C 195.265 177.865,195.265 177.271,195.170 176.909 C 195.076 176.546,194.998 176.843,194.998 177.568 M140.777 178.144 C 140.219 178.875,139.829 179.535,139.910 179.610 C 139.990 179.686,140.521 179.087,141.090 178.281 C 142.379 176.450,142.147 176.349,140.777 178.144 M211.305 179.311 C 211.616 179.907,211.872 180.582,211.873 180.809 C 211.875 181.036,212.257 181.545,212.724 181.940 C 213.565 182.652,213.567 182.652,212.942 181.904 C 212.595 181.489,212.197 180.690,212.056 180.129 C 211.916 179.567,211.563 178.909,211.270 178.666 C 210.839 178.308,210.846 178.430,211.305 179.311 M223.215 179.112 C 223.199 179.443,223.567 180.037,224.034 180.432 C 224.875 181.144,224.877 181.143,224.272 180.396 C 223.936 179.981,223.567 179.387,223.453 179.076 C 223.277 178.596,223.241 178.602,223.215 179.112 M165.543 180.355 C 164.916 181.022,164.737 181.585,164.851 182.522 L 165.007 183.789 165.067 182.494 C 165.102 181.750,165.476 180.827,165.947 180.326 C 166.398 179.846,166.682 179.453,166.578 179.453 C 166.475 179.453,166.009 179.859,165.543 180.355 M250.946 181.969 C 251.181 182.141,251.467 182.620,251.581 183.035 C 251.745 183.629,251.774 183.596,251.719 182.876 C 251.681 182.374,251.395 181.894,251.084 181.810 C 250.710 181.710,250.663 181.764,250.946 181.969 M224.814 184.354 C 224.814 185.702,224.883 186.254,224.966 185.580 C 225.050 184.906,225.050 183.803,224.966 183.129 C 224.883 182.455,224.814 183.007,224.814 184.354 M213.456 185.144 C 213.393 187.308,213.493 187.724,214.232 188.349 C 215.075 189.063,215.076 189.062,214.441 188.306 C 214.026 187.813,213.753 186.683,213.665 185.101 L 213.529 182.658 213.456 185.144 M164.820 185.838 C 164.769 187.345,164.529 188.143,163.913 188.854 L 163.075 189.821 164.123 188.848 C 165.067 187.972,165.157 187.672,165.030 185.832 L 164.890 183.789 164.820 185.838 M191.688 185.580 L 190.198 187.182 191.800 185.692 C 193.290 184.306,193.576 183.977,193.290 183.977 C 193.229 183.977,192.508 184.698,191.688 185.580 M55.214 199.246 C 55.214 207.540,55.264 210.879,55.325 206.667 C 55.386 202.454,55.385 195.668,55.325 191.587 C 55.264 187.505,55.214 190.952,55.214 199.246 M136.927 185.561 C 136.197 186.291,136.315 194.320,137.067 195.072 C 137.894 195.898,138.238 195.817,137.476 194.975 C 136.696 194.113,136.554 186.311,137.304 185.561 C 137.553 185.312,137.672 185.108,137.568 185.108 C 137.465 185.108,137.176 185.312,136.927 185.561 M336.389 186.616 C 336.389 187.549,336.463 187.931,336.553 187.465 C 336.642 186.998,336.642 186.235,336.553 185.768 C 336.463 185.302,336.389 185.683,336.389 186.616 M188.417 188.122 C 187.424 188.421,185.102 190.009,185.658 190.009 C 185.809 190.009,186.363 189.670,186.891 189.255 C 187.418 188.841,188.156 188.501,188.530 188.501 C 188.905 188.501,189.316 188.332,189.444 188.124 C 189.572 187.917,189.624 187.762,189.560 187.780 C 189.496 187.798,188.982 187.951,188.417 188.122 M254.342 188.878 C 254.579 189.189,254.856 189.783,254.958 190.198 C 255.134 190.914,255.146 190.912,255.187 190.150 C 255.211 189.709,254.934 189.115,254.571 188.830 C 253.997 188.380,253.968 188.387,254.342 188.878 M336.795 191.894 C 336.795 193.657,336.860 194.378,336.940 193.497 C 337.019 192.615,337.019 191.173,336.940 190.292 C 336.860 189.411,336.795 190.132,336.795 191.894 M175.005 190.462 C 174.756 190.711,174.569 191.262,174.590 191.687 C 174.621 192.334,174.670 192.306,174.889 191.517 C 175.083 190.817,175.484 190.515,176.453 190.342 L 177.757 190.109 176.607 190.059 C 175.975 190.032,175.254 190.213,175.005 190.462 M179.925 190.287 C 180.910 190.364,182.521 190.364,183.506 190.287 C 184.491 190.209,183.685 190.145,181.715 190.145 C 179.746 190.145,178.940 190.209,179.925 190.287 M163.251 190.582 C 163.255 190.785,163.591 191.376,163.996 191.894 C 164.402 192.413,164.763 193.346,164.798 193.968 C 164.863 195.089,164.865 195.090,165.019 194.077 C 165.121 193.406,164.843 192.567,164.208 191.633 C 163.677 190.851,163.246 190.378,163.251 190.582 M213.504 194.910 C 213.504 196.258,213.573 196.810,213.656 196.136 C 213.740 195.462,213.740 194.359,213.656 193.685 C 213.573 193.011,213.504 193.563,213.504 194.910 M224.807 196.418 C 224.807 197.559,224.877 198.025,224.964 197.455 C 225.050 196.885,225.050 195.952,224.964 195.382 C 224.877 194.811,224.807 195.278,224.807 196.418 M252.281 195.406 C 251.830 195.886,251.461 196.623,251.461 197.044 C 251.461 197.465,251.122 198.117,250.707 198.492 C 250.292 198.867,249.953 199.331,249.953 199.522 C 249.953 199.713,250.377 199.365,250.895 198.749 C 251.414 198.133,251.838 197.325,251.838 196.954 C 251.838 196.582,252.207 195.886,252.658 195.406 C 253.108 194.926,253.393 194.533,253.289 194.533 C 253.185 194.533,252.731 194.926,252.281 195.406 M336.426 201.320 C 336.426 203.497,336.488 204.387,336.564 203.299 C 336.641 202.210,336.641 200.429,336.564 199.340 C 336.488 198.252,336.426 199.142,336.426 201.320 M222.889 201.943 C 222.657 202.700,222.616 203.167,222.800 202.980 C 223.168 202.602,223.741 200.566,223.478 200.566 C 223.387 200.566,223.122 201.185,222.889 201.943 M181.041 204.151 C 182.641 205.789,184.010 207.052,184.085 206.957 C 184.160 206.863,182.852 205.523,181.178 203.980 L 178.134 201.173 181.041 204.151 M167.628 203.836 C 167.864 204.007,168.149 204.486,168.264 204.901 C 168.427 205.496,168.456 205.462,168.401 204.742 C 168.363 204.240,168.077 203.760,167.766 203.677 C 167.393 203.576,167.346 203.630,167.628 203.836 M246.604 205.264 C 246.580 205.671,245.841 206.773,244.963 207.714 L 243.366 209.425 245.189 207.686 C 246.458 206.475,246.957 205.731,246.830 205.235 C 246.657 204.561,246.645 204.562,246.604 205.264 M206.482 206.044 C 205.900 206.556,205.574 206.975,205.757 206.975 C 205.940 206.975,206.488 206.550,206.975 206.032 C 208.101 204.833,207.852 204.839,206.482 206.044 M144.581 207.729 C 145.390 208.558,146.138 209.237,146.242 209.237 C 146.345 209.237,145.767 208.558,144.958 207.729 C 144.148 206.899,143.400 206.221,143.297 206.221 C 143.193 206.221,143.771 206.899,144.581 207.729 M216.206 211.216 L 211.310 216.211 216.305 211.316 C 220.946 206.768,221.472 206.221,221.201 206.221 C 221.146 206.221,218.898 208.468,216.206 211.216 M335.594 207.179 C 335.353 207.708,335.163 208.430,335.172 208.783 C 335.181 209.136,335.428 208.753,335.721 207.931 C 336.329 206.224,336.248 205.744,335.594 207.179 M191.517 209.531 C 191.517 210.062,193.061 210.507,194.032 210.256 C 194.449 210.149,194.266 210.061,193.572 210.034 C 192.940 210.010,192.219 209.787,191.970 209.538 C 191.626 209.194,191.517 209.193,191.517 209.531 M243.211 210.054 C 243.187 210.400,243.069 210.994,242.950 211.374 C 242.744 212.028,242.755 212.029,243.164 211.392 C 243.401 211.023,243.518 210.429,243.424 210.073 C 243.271 209.489,243.250 209.487,243.211 210.054 M334.866 211.122 C 334.866 211.847,334.944 212.144,335.038 211.781 C 335.133 211.418,335.133 210.825,335.038 210.462 C 334.944 210.099,334.866 210.396,334.866 211.122 M148.351 213.007 C 149.372 214.043,150.292 214.892,150.396 214.892 C 150.499 214.892,149.749 214.043,148.728 213.007 C 147.706 211.970,146.786 211.122,146.682 211.122 C 146.579 211.122,147.329 211.970,148.351 213.007 M172.938 212.261 C 173.605 212.961,174.215 213.457,174.293 213.364 C 174.371 213.271,173.825 212.698,173.080 212.091 L 171.725 210.988 172.938 212.261 M152.875 217.531 C 154.106 218.775,155.198 219.793,155.302 219.793 C 155.405 219.793,154.483 218.775,153.252 217.531 C 152.021 216.287,150.928 215.269,150.825 215.269 C 150.721 215.269,151.644 216.287,152.875 217.531 M334.112 217.154 C 334.112 217.879,334.190 218.176,334.284 217.813 C 334.379 217.451,334.379 216.857,334.284 216.494 C 334.190 216.131,334.112 216.428,334.112 217.154 M208.438 217.108 C 207.942 217.498,207.198 217.902,206.784 218.007 C 206.087 218.183,206.093 218.200,206.858 218.241 C 207.312 218.265,207.799 218.098,207.940 217.870 C 208.081 217.643,208.727 217.225,209.376 216.943 C 210.025 216.660,210.282 216.422,209.947 216.414 C 209.612 216.406,208.933 216.718,208.438 217.108 M181.671 217.739 C 182.648 218.562,183.105 218.682,184.810 218.563 L 186.805 218.424 184.696 218.354 C 183.125 218.302,182.412 218.092,181.904 217.531 C 181.529 217.116,181.065 216.777,180.874 216.777 C 180.683 216.777,181.041 217.210,181.671 217.739 M202.846 219.205 C 202.597 219.504,201.856 219.817,201.197 219.899 L 200.000 220.049 201.167 220.109 C 201.913 220.148,202.580 219.898,203.016 219.416 C 203.391 219.001,203.608 218.662,203.498 218.662 C 203.387 218.662,203.094 218.906,202.846 219.205 M188.030 220.059 C 188.497 220.149,189.260 220.149,189.727 220.059 C 190.193 219.969,189.811 219.895,188.878 219.895 C 187.945 219.895,187.564 219.969,188.030 220.059 M162.300 225.448 C 163.110 226.277,163.857 226.956,163.961 226.956 C 164.064 226.956,163.487 226.277,162.677 225.448 C 161.867 224.618,161.119 223.940,161.016 223.940 C 160.912 223.940,161.490 224.618,162.300 225.448 M226.463 226.025 C 225.882 226.537,225.555 226.956,225.738 226.956 C 225.921 226.956,226.469 226.532,226.956 226.013 C 228.082 224.814,227.833 224.820,226.463 226.025 M58.146 229.218 C 58.146 229.943,58.223 230.240,58.318 229.877 C 58.413 229.515,58.413 228.921,58.318 228.558 C 58.223 228.195,58.146 228.492,58.146 229.218 M170.649 230.723 C 171.095 230.903,171.571 231.231,171.708 231.453 C 171.846 231.675,172.140 231.857,172.363 231.857 C 172.586 231.857,172.338 231.517,171.810 231.103 C 171.283 230.688,170.624 230.359,170.346 230.373 C 170.067 230.386,170.204 230.544,170.649 230.723 M214.986 232.117 C 215.349 232.211,215.943 232.211,216.305 232.117 C 216.668 232.022,216.371 231.944,215.646 231.944 C 214.920 231.944,214.623 232.022,214.986 232.117 M178.888 233.742 C 179.303 233.920,179.981 234.061,180.396 234.055 C 181.002 234.046,180.965 233.984,180.207 233.742 C 178.918 233.329,177.927 233.329,178.888 233.742 M208.258 234.590 C 207.546 235.432,207.546 235.433,208.294 234.808 C 208.709 234.461,209.642 234.107,210.368 234.020 L 211.687 233.862 210.332 233.802 C 209.342 233.758,208.783 233.970,208.258 234.590 M184.072 235.510 C 184.434 235.604,185.028 235.604,185.391 235.510 C 185.754 235.415,185.457 235.337,184.731 235.337 C 184.006 235.337,183.709 235.415,184.072 235.510 M198.333 235.922 C 198.317 236.188,197.922 236.559,197.455 236.746 C 196.982 236.936,196.857 237.095,197.172 237.105 C 198.053 237.133,198.794 236.522,198.568 235.953 C 198.414 235.568,198.356 235.560,198.333 235.922 M191.839 236.853 C 192.029 237.043,192.586 237.135,193.076 237.058 C 193.831 236.940,193.778 236.887,192.731 236.713 C 191.982 236.589,191.630 236.644,191.839 236.853 M326.546 246.010 C 325.914 247.397,326.035 247.693,326.718 246.432 C 327.037 245.844,327.227 245.292,327.141 245.205 C 327.054 245.119,326.787 245.481,326.546 246.010 M65.225 252.403 C 65.226 252.611,65.564 253.289,65.975 253.911 C 66.952 255.385,66.953 254.861,65.977 253.261 C 65.563 252.582,65.225 252.196,65.225 252.403 M69.599 261.263 C 70.416 262.948,70.667 263.211,70.317 262.017 C 70.166 261.499,69.798 260.820,69.500 260.509 C 69.107 260.099,69.134 260.306,69.599 261.263 M76.020 272.196 C 76.257 272.507,76.534 273.101,76.636 273.516 C 76.812 274.232,76.823 274.229,76.865 273.467 C 76.889 273.026,76.612 272.433,76.249 272.148 C 75.675 271.698,75.645 271.704,76.020 272.196 M78.249 275.990 C 79.067 276.936,79.813 277.651,79.906 277.579 C 80.000 277.507,79.330 276.733,78.419 275.859 L 76.762 274.270 78.249 275.990 M310.678 276.617 C 310.041 277.390,309.520 278.281,309.522 278.597 C 309.523 278.912,309.789 278.662,310.112 278.040 C 310.436 277.418,311.058 276.527,311.495 276.060 C 311.932 275.594,312.188 275.212,312.063 275.212 C 311.938 275.212,311.315 275.844,310.678 276.617 M80.302 279.873 C 80.302 279.977,80.811 280.424,81.433 280.867 C 82.055 281.310,82.564 281.588,82.564 281.484 C 82.564 281.380,82.055 280.933,81.433 280.490 C 80.811 280.047,80.302 279.770,80.302 279.873 M95.193 296.324 C 100.581 301.715,105.075 306.126,105.178 306.126 C 105.282 306.126,100.958 301.715,95.570 296.324 C 90.182 290.933,85.689 286.522,85.585 286.522 C 85.481 286.522,89.805 290.933,95.193 296.324 M302.777 287.085 C 302.751 287.524,299.175 291.435,294.157 296.510 L 285.582 305.184 294.384 296.473 C 301.058 289.869,303.142 287.590,303.004 287.048 C 302.831 286.375,302.818 286.378,302.777 287.085 M283.672 305.582 C 282.952 306.159,282.953 306.162,283.695 305.821 C 284.109 305.630,284.703 305.380,285.014 305.264 C 285.503 305.083,285.500 305.051,284.992 305.025 C 284.669 305.009,284.075 305.259,283.672 305.582 M108.200 307.752 C 108.200 307.817,108.751 308.369,109.425 308.978 L 110.650 310.085 109.543 308.860 C 108.511 307.717,108.200 307.461,108.200 307.752 M278.040 310.650 C 277.664 311.065,276.994 311.404,276.550 311.404 C 276.085 311.404,275.110 312.084,274.252 313.007 L 272.762 314.609 274.285 313.195 C 275.124 312.418,276.154 311.781,276.576 311.781 C 276.998 311.781,277.741 311.357,278.228 310.839 C 278.715 310.320,279.025 309.896,278.918 309.896 C 278.810 309.896,278.415 310.236,278.040 310.650 M114.986 312.653 C 114.986 312.718,115.537 313.270,116.211 313.879 L 117.436 314.986 116.329 313.761 C 115.297 312.618,114.986 312.362,114.986 312.653 M269.842 316.023 C 269.354 316.489,269.217 316.683,269.539 316.452 C 269.860 316.222,270.462 315.846,270.877 315.616 C 271.291 315.386,271.428 315.192,271.180 315.186 C 270.933 315.180,270.331 315.556,269.842 316.023 M134.213 324.034 C 135.146 324.534,136.079 324.942,136.287 324.942 C 136.494 324.942,135.900 324.534,134.967 324.034 C 134.034 323.534,133.101 323.125,132.893 323.125 C 132.686 323.125,133.280 323.534,134.213 324.034 M246.560 327.427 C 245.329 328.131,245.759 328.139,247.365 327.442 C 248.063 327.139,248.379 326.890,248.068 326.890 C 247.757 326.889,247.078 327.131,246.560 327.427 M176.532 336.546 C 176.894 336.641,177.488 336.641,177.851 336.546 C 178.214 336.452,177.917 336.374,177.191 336.374 C 176.466 336.374,176.169 336.452,176.532 336.546 M184.843 336.944 C 186.459 337.015,189.004 337.014,190.498 336.943 C 191.992 336.872,190.669 336.814,187.559 336.814 C 184.449 336.815,183.226 336.873,184.843 336.944 M193.874 336.923 C 194.237 337.018,194.830 337.018,195.193 336.923 C 195.556 336.829,195.259 336.751,194.533 336.751 C 193.808 336.751,193.511 336.829,193.874 336.923 M198.963 336.930 C 199.430 337.019,200.193 337.019,200.660 336.930 C 201.126 336.840,200.745 336.766,199.811 336.766 C 198.878 336.766,198.497 336.840,198.963 336.930 M203.299 336.941 C 204.284 337.018,205.895 337.018,206.880 336.941 C 207.865 336.863,207.059 336.799,205.090 336.799 C 203.120 336.799,202.314 336.863,203.299 336.941 " stroke="none" fill="#5e2f5e" fill-rule="evenodd"></path><path id="SvgjsPath1027" d="M291.800 88.407 C 292.504 89.133,293.164 89.727,293.268 89.727 C 293.371 89.727,292.881 89.133,292.177 88.407 C 291.474 87.681,290.813 87.088,290.710 87.088 C 290.606 87.088,291.097 87.681,291.800 88.407 M295.005 91.612 C 295.815 92.441,296.562 93.120,296.666 93.120 C 296.769 93.120,296.192 92.441,295.382 91.612 C 294.572 90.782,293.824 90.104,293.721 90.104 C 293.617 90.104,294.195 90.782,295.005 91.612 M309.896 109.826 C 309.896 109.891,310.448 110.442,311.122 111.051 L 312.347 112.158 311.240 110.933 C 310.207 109.791,309.896 109.535,309.896 109.826 M198.591 160.493 C 199.060 160.583,199.738 160.580,200.099 160.485 C 200.459 160.391,200.075 160.317,199.246 160.321 C 198.417 160.325,198.122 160.403,198.591 160.493 M334.571 177.897 C 334.652 178.803,334.927 179.736,335.181 179.970 C 335.528 180.290,335.578 180.280,335.381 179.930 C 335.236 179.674,334.962 178.741,334.770 177.857 L 334.422 176.249 334.571 177.897 M336.433 192.837 C 336.434 195.533,336.494 196.586,336.566 195.178 C 336.639 193.769,336.639 191.564,336.565 190.276 C 336.492 188.989,336.432 190.141,336.433 192.837 M336.051 202.262 C 336.051 204.543,336.113 205.427,336.189 204.228 C 336.264 203.028,336.263 201.162,336.187 200.080 C 336.111 198.999,336.050 199.981,336.051 202.262 M211.593 201.037 C 211.187 202.145,211.197 202.192,211.698 201.530 C 212.178 200.897,212.461 199.811,212.147 199.811 C 212.089 199.811,211.839 200.363,211.593 201.037 M191.938 210.402 C 192.427 210.712,195.597 210.907,195.256 210.606 C 195.170 210.530,194.270 210.379,193.257 210.270 C 192.131 210.149,191.619 210.200,191.938 210.402 M162.759 226.210 C 163.426 226.910,164.036 227.406,164.114 227.313 C 164.192 227.220,163.646 226.648,162.901 226.041 L 161.546 224.937 162.759 226.210 M176.437 233.085 C 176.748 233.405,177.597 233.761,178.322 233.878 L 179.642 234.089 178.322 233.633 C 177.597 233.382,176.748 233.025,176.437 232.840 C 175.935 232.542,175.935 232.569,176.437 233.085 M186.334 235.887 C 186.697 235.981,187.290 235.981,187.653 235.887 C 188.016 235.792,187.719 235.714,186.993 235.714 C 186.268 235.714,185.971 235.792,186.334 235.887 M193.677 237.407 C 194.346 237.490,195.534 237.492,196.316 237.410 C 197.098 237.328,196.550 237.260,195.099 237.258 C 193.648 237.257,193.008 237.324,193.677 237.407 M316.108 267.700 C 315.751 268.824,316.048 268.911,316.557 267.833 C 316.794 267.330,316.846 266.918,316.672 266.918 C 316.498 266.918,316.244 267.270,316.108 267.700 M313.880 271.348 C 313.065 272.389,313.000 272.564,313.632 272.012 C 314.388 271.351,315.385 269.934,315.093 269.934 C 315.034 269.934,314.488 270.570,313.880 271.348 M305.006 283.684 C 303.675 285.026,302.662 286.176,302.754 286.239 C 302.846 286.301,304.011 285.203,305.343 283.798 C 308.423 280.549,308.191 280.470,305.006 283.684 M298.757 291.517 L 297.267 293.120 298.869 291.629 C 300.359 290.243,300.644 289.915,300.359 289.915 C 300.298 289.915,299.577 290.636,298.757 291.517 M90.858 291.612 C 91.561 292.337,92.221 292.931,92.325 292.931 C 92.429 292.931,91.938 292.337,91.235 291.612 C 90.531 290.886,89.871 290.292,89.767 290.292 C 89.664 290.292,90.154 290.886,90.858 291.612 M94.251 295.005 C 94.954 295.730,95.614 296.324,95.718 296.324 C 95.822 296.324,95.331 295.730,94.628 295.005 C 93.924 294.279,93.264 293.685,93.160 293.685 C 93.057 293.685,93.547 294.279,94.251 295.005 M286.131 304.070 C 285.865 304.390,285.401 304.558,285.099 304.442 C 284.753 304.309,283.494 305.297,281.673 307.132 L 278.794 310.032 281.490 307.514 C 282.973 306.129,284.516 304.995,284.919 304.995 C 285.322 304.995,285.958 304.656,286.334 304.241 C 286.709 303.827,286.926 303.487,286.815 303.487 C 286.705 303.487,286.397 303.749,286.131 304.070 M274.807 312.064 L 273.893 313.101 274.835 312.301 C 275.353 311.860,276.032 311.407,276.343 311.294 C 276.827 311.117,276.823 311.083,276.315 311.057 C 275.988 311.041,275.309 311.494,274.807 312.064 M113.478 311.673 C 113.789 311.788,114.259 312.053,114.523 312.262 C 114.882 312.546,114.943 312.486,114.766 312.023 C 114.635 311.683,114.165 311.418,113.720 311.434 C 113.169 311.454,113.092 311.530,113.478 311.673 M271.631 314.689 C 270.476 314.967,270.121 315.483,271.231 315.271 C 271.768 315.168,272.300 314.935,272.412 314.752 C 272.525 314.570,272.565 314.440,272.501 314.464 C 272.437 314.488,272.045 314.589,271.631 314.689 M265.318 318.662 C 264.830 319.128,264.707 319.298,265.044 319.039 C 265.382 318.779,265.931 318.567,266.266 318.567 C 266.600 318.567,266.978 318.398,267.107 318.190 C 267.556 317.464,266.197 317.822,265.318 318.662 M261.709 320.264 C 261.093 320.782,260.433 321.206,260.244 321.206 C 260.054 321.206,259.570 321.464,259.167 321.778 C 258.494 322.304,258.526 322.313,259.566 321.895 C 260.189 321.644,261.057 321.124,261.497 320.738 C 261.936 320.352,262.646 320.010,263.073 319.977 C 263.500 319.945,263.767 319.784,263.665 319.620 C 263.357 319.121,262.881 319.278,261.709 320.264 M174.839 336.176 C 175.308 336.266,175.987 336.263,176.347 336.169 C 176.708 336.074,176.324 336.000,175.495 336.005 C 174.665 336.009,174.370 336.086,174.839 336.176 M184.637 336.569 C 188.214 336.631,194.067 336.631,197.644 336.569 C 201.221 336.507,198.294 336.456,191.140 336.456 C 183.987 336.456,181.060 336.507,184.637 336.569 M206.315 336.565 C 207.507 336.640,209.458 336.640,210.650 336.565 C 211.843 336.490,210.867 336.429,208.483 336.429 C 206.098 336.429,205.123 336.490,206.315 336.565 " stroke="none" fill="#8e3274" fill-rule="evenodd"></path></g></svg><style>@media (prefers-color-scheme: light) { :root { filter: none; } }
@media (prefers-color-scheme: dark) { :root { filter: none; } }
</style></svg>